<svg width="382" height="212" viewBox="0 0 382 212" fill="none" xmlns="http://www.w3.org/2000/svg">
<path opacity="0.2" d="M320.757 73.6734L187.169 92.9961C184.441 93.3857 182.523 95.948 182.915 98.6885L208.374 274.704C208.763 277.432 211.326 279.35 214.066 278.958L347.652 259.623C350.38 259.234 352.298 256.672 351.906 253.931L326.435 77.918C326.045 75.1897 323.483 73.2716 320.757 73.6734Z" fill="#3A7EC1"/>
<path d="M356.281 270.763C356.086 270.803 355.888 270.83 355.688 270.845L221.328 283.681C218.199 283.974 215.408 281.684 215.115 278.555L198.188 101.516C198.046 100.007 198.496 98.5313 199.476 97.3538C200.456 96.1763 201.809 95.4567 203.327 95.3005L337.687 82.4647C340.816 82.1715 343.607 84.4624 343.9 87.5914L360.815 264.633C361.093 267.562 359.099 270.19 356.281 270.763ZM202.992 96.7151C202.028 96.9111 201.156 97.4315 200.514 98.2099C199.769 99.1107 199.426 100.235 199.533 101.382L216.45 278.436C216.556 279.583 217.111 280.626 218.012 281.37C218.913 282.114 220.037 282.457 221.184 282.351L355.545 269.515C357.925 269.286 359.69 267.161 359.458 264.769L342.543 87.7276C342.311 85.3357 340.189 83.5822 337.797 83.8144L203.436 96.6502C203.287 96.6678 203.138 96.6854 202.992 96.7151Z" fill="white"/>
<path d="M343.761 257.48L210.175 276.815C207.447 277.204 204.887 275.299 204.483 272.56L179.011 96.5475C178.619 93.807 180.528 91.2593 183.266 90.8551L316.854 71.5323C319.582 71.1428 322.142 73.0487 322.546 75.7867L348.018 251.8C348.405 254.516 346.499 257.076 343.761 257.48Z" fill="#3B82F4"/>
<path d="M309.034 123.48L205.496 138.458C203.731 138.716 202.07 137.478 201.825 135.711C201.568 133.947 202.808 132.297 204.572 132.04L308.11 117.062C309.874 116.805 311.536 118.042 311.781 119.809C312.038 121.573 310.798 123.223 309.034 123.48Z" fill="#B3CEF6"/>
<path d="M312.391 146.68L208.853 161.659C207.089 161.916 205.427 160.678 205.182 158.912C204.925 157.147 206.165 155.498 207.929 155.241L311.467 140.262C313.232 140.005 314.893 141.242 315.138 143.009C315.395 144.773 314.156 146.423 312.391 146.68Z" fill="#B3CEF6"/>
<path d="M315.749 169.879L212.211 184.858C210.447 185.115 208.785 183.878 208.54 182.111C208.283 180.347 209.52 178.685 211.287 178.44L314.825 163.461C316.589 163.204 318.251 164.442 318.496 166.208C318.753 167.973 317.513 169.622 315.749 169.879Z" fill="#B3CEF6"/>
<path d="M319.106 193.079L215.568 208.058C213.804 208.315 212.142 207.078 211.897 205.311C211.64 203.547 212.878 201.885 214.645 201.64L318.182 186.661C319.947 186.404 321.609 187.642 321.853 189.409C322.108 191.161 320.871 192.822 319.106 193.079Z" fill="#B3CEF6"/>
<path d="M322.465 216.28L218.927 231.259C217.162 231.516 215.501 230.278 215.256 228.511C214.999 226.747 216.236 225.085 218.003 224.84L321.541 209.862C323.305 209.605 324.967 210.842 325.212 212.609C325.466 214.361 324.229 216.023 322.465 216.28Z" fill="#B3CEF6"/>
<path d="M305.678 100.291L202.14 115.27C200.376 115.527 198.714 114.29 198.469 112.523C198.212 110.758 199.452 109.109 201.217 108.852L304.755 93.8731C306.519 93.616 308.181 94.8534 308.425 96.6203C308.68 98.3724 307.443 100.034 305.678 100.291Z" fill="#B3CEF6"/>
<path d="M235.569 201.211L151.747 254.928C145.509 258.928 143.69 267.225 147.687 273.45C151.687 279.687 159.984 281.507 166.209 277.51L245.197 226.883C247.872 225.171 248.649 221.621 246.939 218.958L235.569 201.211Z" fill="#C1822F"/>
<path opacity="0.2" d="M263.402 60.372L133.833 98.2125C131.181 98.9803 129.645 101.795 130.425 104.444L180.291 275.167C181.059 277.818 183.874 279.355 186.523 278.575L316.092 240.734C318.741 239.954 320.28 237.152 319.5 234.503L269.633 63.78C268.856 61.1432 266.053 59.6043 263.402 60.372Z" fill="#3A7EC1"/>
<path d="M311.483 237.747L181.914 275.587C179.265 276.367 176.462 274.828 175.682 272.179L125.816 101.456C125.048 98.8049 126.575 96.0046 129.223 95.2247L258.792 57.3842C261.444 56.6164 264.244 58.1432 265.024 60.7921L314.891 231.515C315.673 234.176 314.134 236.979 311.483 237.747Z" fill="white"/>
<path d="M258.338 109.943L157.909 139.28C156.195 139.781 154.392 138.788 153.891 137.073C153.39 135.358 154.383 133.556 156.098 133.055L256.526 103.718C258.24 103.217 260.043 104.21 260.544 105.924C261.043 107.627 260.052 109.442 258.338 109.943Z" fill="#E4ECF9"/>
<path d="M264.906 132.44L164.478 161.777C162.763 162.278 160.961 161.285 160.459 159.57C159.958 157.855 160.951 156.053 162.666 155.552L263.094 126.215C264.809 125.714 266.611 126.707 267.112 128.422C267.611 130.124 266.621 131.939 264.906 132.44Z" fill="#E4ECF9"/>
<path d="M271.475 154.936L171.044 184.261C169.329 184.762 167.527 183.769 167.026 182.055C166.525 180.34 167.518 178.537 169.232 178.036L269.661 148.699C271.375 148.198 273.178 149.191 273.679 150.906C274.182 152.633 273.19 154.435 271.475 154.936Z" fill="#E4ECF9"/>
<path d="M278.057 177.442L177.627 206.766C175.912 207.267 174.109 206.275 173.608 204.56C173.107 202.845 174.1 201.043 175.815 200.542L276.245 171.217C277.96 170.716 279.763 171.709 280.264 173.423C280.75 175.129 279.76 176.943 278.057 177.442Z" fill="#E4ECF9"/>
<path d="M284.626 199.938L184.195 229.263C182.48 229.764 180.678 228.771 180.177 227.056C179.676 225.341 180.668 223.539 182.383 223.038L282.814 193.713C284.529 193.212 286.331 194.205 286.832 195.92C287.331 197.622 286.34 199.437 284.626 199.938Z" fill="#E4ECF9"/>
<path d="M251.769 87.4457L151.341 116.783C149.626 117.284 147.824 116.291 147.323 114.576C146.822 112.861 147.814 111.059 149.529 110.558L249.957 81.2209C251.672 80.7199 253.475 81.7127 253.976 83.4274C254.474 85.1299 253.484 86.9447 251.769 87.4457Z" fill="#52D1BD"/>
<path opacity="0.2" d="M193.703 38.7825L226.324 89.6974C228.653 93.3399 227.591 98.1798 223.961 100.506L212.768 107.685L263.456 186.788C265.615 190.16 264.633 194.64 261.261 196.8L170.627 254.875L167.64 244.748L64.1183 128.47C62.1259 125.356 61.5772 121.72 62.3063 118.37C63.0476 115.018 65.052 111.943 68.178 109.948L182.909 36.4291C186.534 34.0787 191.374 35.1399 193.703 38.7825Z" fill="#3A7EC1"/>
<path d="M251.364 182.487L200.676 103.385L211.869 96.2052C215.512 93.8767 216.573 89.0368 214.232 85.3967L181.599 34.4843C179.27 30.8418 174.433 29.7927 170.79 32.1213L56.0592 105.64C52.9454 107.633 50.9288 110.71 50.1997 114.06C49.4609 117.424 50.0194 121.045 52.0118 124.159L70.6399 153.236L94.4747 190.426L140.437 262.156L147.675 273.451C145.68 270.325 145.134 266.702 145.863 263.352C146.594 260.015 148.592 256.966 151.679 254.967L249.157 192.501C252.526 190.33 253.523 185.859 251.364 182.487Z" fill="#F9C067"/>
<path d="M134.313 162.928C132.699 165.238 130.625 167.285 128.109 168.902L94.5023 190.433L70.6675 153.243L104.283 131.697C109.42 128.404 115.398 127.506 120.929 128.719C123.136 129.198 125.284 130.019 127.258 131.167C130.223 132.877 132.835 135.293 134.808 138.373C139.752 146.133 139.258 155.824 134.313 162.928Z" fill="#E5A755"/>
<path d="M134.769 130.937C139.737 138.692 139.253 148.369 134.298 155.487C132.684 157.797 130.608 159.832 128.091 161.449L89.1587 186.401C86.3836 188.184 85.5701 191.869 87.3539 194.644L84.1347 189.62L53.6545 209.156L38.7756 185.961C40.4446 183.36 42.6859 181.075 45.4488 179.294L68.1738 164.726L63.5069 157.456C61.7232 154.681 62.5341 150.984 65.3093 149.201L104.242 124.249C109.378 120.957 115.356 120.059 120.888 121.271C123.094 121.75 125.23 122.574 127.216 123.72C130.181 125.429 132.796 127.857 134.769 130.937Z" fill="#3B82F4"/>
<path d="M68.1771 164.738L88.7926 196.905C90.5764 199.68 89.7655 203.376 86.9903 205.16L69.2991 216.494C66.5215 218.265 63.5147 219.347 60.452 219.779C52.1768 220.94 43.5884 217.313 38.7866 209.816C35.4938 204.68 34.5958 198.701 35.8087 193.17C36.3719 190.629 37.3724 188.177 38.7887 185.958C40.4576 183.357 42.6989 181.072 45.4618 179.291L68.1771 164.738Z" fill="#2670DB"/>
<path d="M103.962 148.175L98.0242 138.902L88.4611 145.038L94.3965 154.299L90.9708 156.508L107.637 164.438L107.39 145.979L103.962 148.175Z" fill="white"/>
<path d="M82.5852 155.381C82.3168 155.435 82.0137 155.319 81.8615 155.07L77.3026 147.956C77.0965 147.629 77.1879 147.204 77.5144 146.998L84.5948 142.459C84.9213 142.253 85.3464 142.344 85.5525 142.671C85.7586 142.997 85.6672 143.422 85.3407 143.628L78.8451 147.795L83.031 154.324C83.2372 154.651 83.1457 155.076 82.8192 155.282C82.7413 155.336 82.6584 155.366 82.5852 155.381Z" fill="white"/>
<path d="M116.417 163.822C116.149 163.877 115.845 163.76 115.693 163.512C115.487 163.185 115.579 162.76 115.905 162.554L122.043 158.626L117.707 151.86C117.501 151.533 117.592 151.108 117.919 150.902C118.245 150.696 118.67 150.787 118.876 151.114L123.585 158.465C123.681 158.623 123.718 158.806 123.68 158.992C123.641 159.177 123.532 159.327 123.373 159.422L116.651 163.724C116.585 163.775 116.502 163.805 116.417 163.822Z" fill="white"/>
<path d="M175.664 189.863L193.852 195.718L199.881 176.949L181.693 171.093L183.869 164.363L152.777 172.145L173.488 196.594L175.664 189.863Z" fill="#E5A755"/>
<path d="M173.545 179.445L191.731 185.287L197.762 166.53L179.574 160.675L181.748 153.932L150.659 161.727L171.369 186.175L173.545 179.445Z" fill="white"/>
<path d="M244.453 33.2299C246.783 29.71 245.819 24.9674 242.299 22.637C238.779 20.3066 234.036 21.2708 231.706 24.7907C229.376 28.3106 230.34 33.0532 233.86 35.3836C237.38 37.7141 242.122 36.7498 244.453 33.2299Z" fill="#3B82F4"/>
<path d="M6.3087 120.431C10.4455 119.59 13.1173 115.555 12.2762 111.418C11.4351 107.281 7.39967 104.61 3.26284 105.451C-0.873983 106.292 -3.5457 110.327 -2.70461 114.464C-1.86352 118.601 2.17188 121.273 6.3087 120.431Z" fill="#3B82F4"/>
</svg>
